<?xml version="1.0" encoding="iso-8859-1"?>
<!-- Uploaded to: SVG Repo, www.svgrepo.com, Generator: SVG Repo Mixer Tools -->
<!DOCTYPE svg PUBLIC "-//W3C//DTD SVG 1.1//EN" "http://www.w3.org/Graphics/SVG/1.1/DTD/svg11.dtd">
<svg fill="#000000" version="1.1" id="Capa_1" xmlns="http://www.w3.org/2000/svg" xmlns:xlink="http://www.w3.org/1999/xlink" 
	 width="800px" height="800px" viewBox="0 0 477.089 477.089"
	 xml:space="preserve">
<g>
	<g>
		<path d="M97.547,249.744h-6.4v30.312c2.15,0.089,4.707,0.089,7.801,0.089c8.217,0,22-2,22-15.4
			C120.947,251.692,106.285,249.744,97.547,249.744z"/>
		<path d="M117.746,207.344c0-7.697-5.92-11.6-17.6-11.6c-3.994,0-6.877,0.152-9,0.343v23.857h6
			C103.34,219.944,117.746,218.716,117.746,207.344z"/>
		<path d="M460.523,73.015H16.566C7.42,73.015,0,80.432,0,89.58v297.925c0,9.15,7.42,16.568,16.566,16.568h443.957
			c9.152,0,16.566-7.418,16.566-16.568V89.58C477.09,80.432,469.676,73.015,460.523,73.015z M145.463,297.652
			c-11.23,8.938-28.861,13.092-55.516,13.092c-17.135,0-28.395-1.281-33.582-2.043c-1.963-0.289-3.418-1.973-3.418-3.957V172.345
			c0-1.907,1.346-3.548,3.217-3.922c8.469-1.694,24.992-2.877,40.184-2.877c20.396,0,31.729,2.199,41.758,8.111
			c11.594,6.201,18.24,17.089,18.24,29.888c0,12.043-5.926,22.112-16.551,28.594c13.244,6.599,21.15,18.935,21.15,33.805
			C160.945,278.488,155.592,289.453,145.463,297.652z M291.744,246.144c0,42.173-21.379,65.398-60.199,65.398
			c-26.459,0-58-11.416-58-65.799v-75.199c0-2.209,1.791-4,4-4h30.6c2.209,0,4,1.791,4,4v77.599c0,20.57,6.863,31,20.4,31
			c5.145,0,20.799,0,20.799-31v-77.599c0-2.209,1.791-4,4-4h30.4c2.209,0,4,1.791,4,4V246.144z M423.625,172.512l-43.883,77.683
			v55.146c0,2.209-1.791,4-4,4h-30.398c-2.209,0-4-1.791-4-4v-54.195l-42.127-78.714c-0.664-1.239-0.627-2.736,0.096-3.943
			c0.724-1.206,2.025-1.944,3.433-1.944h34.799c1.604,0,3.053,0.958,3.68,2.433l13.802,32.399c2.661,6.21,4.729,11.295,6.85,16.674
			c2.074-5.317,4.289-10.674,6.777-16.645l13.604-32.41c0.625-1.485,2.078-2.452,3.689-2.452h34.198
			c1.423,0,2.736,0.755,3.455,1.984C424.314,169.757,424.324,171.274,423.625,172.512z"/>
	</g>
</g>
</svg>